<mxfile host="65bd71144e">
    <diagram id="prtHgNgQTEPvFCAcTncT" name="Page-1">
        <mxGraphModel dx="1187" dy="959" grid="1" gridSize="10" guides="1" tooltips="1" connect="1" arrows="1" fold="1" page="1" pageScale="1" pageWidth="827" pageHeight="1169" math="0" shadow="0">
            <root>
                <mxCell id="0"/>
                <mxCell id="1" parent="0"/>
                <mxCell id="fKk6_YKPZvpBL1jXvlfD-42" value="" style="whiteSpace=wrap;html=1;aspect=fixed;" parent="1" vertex="1">
                    <mxGeometry x="277" y="301" width="420" height="420" as="geometry"/>
                </mxCell>
                <mxCell id="fKk6_YKPZvpBL1jXvlfD-5" value="" style="whiteSpace=wrap;html=1;aspect=fixed;" parent="1" vertex="1">
                    <mxGeometry x="290" y="330" width="120" height="120" as="geometry"/>
                </mxCell>
                <mxCell id="fKk6_YKPZvpBL1jXvlfD-6" value="" style="whiteSpace=wrap;html=1;aspect=fixed;" parent="1" vertex="1">
                    <mxGeometry x="90" y="330" width="120" height="120" as="geometry"/>
                </mxCell>
                <mxCell id="fKk6_YKPZvpBL1jXvlfD-8" value="" style="whiteSpace=wrap;html=1;aspect=fixed;" parent="1" vertex="1">
                    <mxGeometry x="490" y="130" width="120" height="120" as="geometry"/>
                </mxCell>
                <mxCell id="fKk6_YKPZvpBL1jXvlfD-7" value="" style="whiteSpace=wrap;html=1;aspect=fixed;" parent="1" vertex="1">
                    <mxGeometry x="490" y="330" width="120" height="120" as="geometry"/>
                </mxCell>
                <mxCell id="fKk6_YKPZvpBL1jXvlfD-9" value="" style="whiteSpace=wrap;html=1;aspect=fixed;" parent="1" vertex="1">
                    <mxGeometry x="290" y="571" width="120" height="120" as="geometry"/>
                </mxCell>
                <mxCell id="fKk6_YKPZvpBL1jXvlfD-10" value="" style="whiteSpace=wrap;html=1;aspect=fixed;" parent="1" vertex="1">
                    <mxGeometry x="90" y="530" width="120" height="120" as="geometry"/>
                </mxCell>
                <mxCell id="fKk6_YKPZvpBL1jXvlfD-11" value="&lt;font style=&quot;font-size: 13px;&quot;&gt;Main Window&lt;/font&gt;" style="text;html=1;align=center;verticalAlign=middle;whiteSpace=wrap;rounded=0;" parent="1" vertex="1">
                    <mxGeometry x="90" y="300" width="60" height="30" as="geometry"/>
                </mxCell>
                <mxCell id="fKk6_YKPZvpBL1jXvlfD-13" value="&lt;font style=&quot;font-size: 13px;&quot;&gt;Serial Receiver&lt;/font&gt;" style="text;html=1;align=center;verticalAlign=middle;whiteSpace=wrap;rounded=0;" parent="1" vertex="1">
                    <mxGeometry x="490" y="300" width="60" height="30" as="geometry"/>
                </mxCell>
                <mxCell id="fKk6_YKPZvpBL1jXvlfD-14" value="&lt;font style=&quot;font-size: 13px;&quot;&gt;Packet Receiver&lt;/font&gt;" style="text;html=1;align=center;verticalAlign=middle;whiteSpace=wrap;rounded=0;" parent="1" vertex="1">
                    <mxGeometry x="490" y="100" width="60" height="30" as="geometry"/>
                </mxCell>
                <mxCell id="2" value="" style="edgeStyle=none;html=1;" edge="1" parent="1" source="fKk6_YKPZvpBL1jXvlfD-15" target="fKk6_YKPZvpBL1jXvlfD-5">
                    <mxGeometry relative="1" as="geometry"/>
                </mxCell>
                <mxCell id="fKk6_YKPZvpBL1jXvlfD-15" value="&lt;font style=&quot;font-size: 13px;&quot;&gt;Serial&lt;/font&gt;&lt;div style=&quot;font-size: 13px;&quot;&gt;&lt;font style=&quot;font-size: 13px;&quot;&gt;&amp;nbsp;Init&lt;/font&gt;&lt;/div&gt;" style="text;html=1;align=center;verticalAlign=middle;whiteSpace=wrap;rounded=0;" parent="1" vertex="1">
                    <mxGeometry x="290" y="300" width="60" height="30" as="geometry"/>
                </mxCell>
                <mxCell id="fKk6_YKPZvpBL1jXvlfD-16" value="&lt;font style=&quot;font-size: 13px;&quot;&gt;Serial&lt;/font&gt;&lt;div style=&quot;font-size: 13px;&quot;&gt;&lt;font style=&quot;font-size: 13px;&quot;&gt;Transmitte&lt;span style=&quot;background-color: initial;&quot;&gt;r&lt;/span&gt;&lt;/font&gt;&lt;/div&gt;" style="text;html=1;align=center;verticalAlign=middle;whiteSpace=wrap;rounded=0;" parent="1" vertex="1">
                    <mxGeometry x="290" y="691" width="60" height="30" as="geometry"/>
                </mxCell>
                <mxCell id="fKk6_YKPZvpBL1jXvlfD-17" value="&lt;font style=&quot;font-size: 13px;&quot;&gt;Packet&lt;/font&gt;&lt;div style=&quot;font-size: 13px;&quot;&gt;&lt;font style=&quot;font-size: 13px;&quot;&gt;Sender&lt;/font&gt;&lt;/div&gt;" style="text;html=1;align=center;verticalAlign=middle;whiteSpace=wrap;rounded=0;" parent="1" vertex="1">
                    <mxGeometry x="90" y="650" width="60" height="30" as="geometry"/>
                </mxCell>
                <mxCell id="fKk6_YKPZvpBL1jXvlfD-18" value="" style="endArrow=classic;html=1;rounded=0;exitX=1;exitY=0.5;exitDx=0;exitDy=0;entryX=0;entryY=0.5;entryDx=0;entryDy=0;" parent="1" source="fKk6_YKPZvpBL1jXvlfD-6" target="fKk6_YKPZvpBL1jXvlfD-5" edge="1">
                    <mxGeometry width="50" height="50" relative="1" as="geometry">
                        <mxPoint x="400" y="560" as="sourcePoint"/>
                        <mxPoint x="450" y="510" as="targetPoint"/>
                        <Array as="points"/>
                    </mxGeometry>
                </mxCell>
                <mxCell id="fKk6_YKPZvpBL1jXvlfD-19" value="" style="endArrow=classic;html=1;rounded=0;exitX=1;exitY=0.5;exitDx=0;exitDy=0;entryX=0;entryY=0.5;entryDx=0;entryDy=0;" parent="1" edge="1">
                    <mxGeometry width="50" height="50" relative="1" as="geometry">
                        <mxPoint x="410" y="389.5" as="sourcePoint"/>
                        <mxPoint x="490" y="389.5" as="targetPoint"/>
                        <Array as="points"/>
                    </mxGeometry>
                </mxCell>
                <mxCell id="fKk6_YKPZvpBL1jXvlfD-20" value="" style="endArrow=classic;html=1;rounded=0;exitX=1;exitY=1;exitDx=0;exitDy=0;entryX=0.5;entryY=1;entryDx=0;entryDy=0;" parent="1" source="fKk6_YKPZvpBL1jXvlfD-13" target="fKk6_YKPZvpBL1jXvlfD-8" edge="1">
                    <mxGeometry width="50" height="50" relative="1" as="geometry">
                        <mxPoint x="550" y="250" as="sourcePoint"/>
                        <mxPoint x="620" y="280" as="targetPoint"/>
                        <Array as="points"/>
                    </mxGeometry>
                </mxCell>
                <mxCell id="fKk6_YKPZvpBL1jXvlfD-21" value="" style="endArrow=classic;html=1;rounded=0;exitX=0;exitY=0.5;exitDx=0;exitDy=0;entryX=0.5;entryY=0;entryDx=0;entryDy=0;" parent="1" source="fKk6_YKPZvpBL1jXvlfD-8" target="fKk6_YKPZvpBL1jXvlfD-6" edge="1">
                    <mxGeometry width="50" height="50" relative="1" as="geometry">
                        <mxPoint x="400" y="560" as="sourcePoint"/>
                        <mxPoint x="450" y="510" as="targetPoint"/>
                    </mxGeometry>
                </mxCell>
                <mxCell id="fKk6_YKPZvpBL1jXvlfD-22" value="" style="endArrow=classic;html=1;rounded=0;exitX=1;exitY=0.5;exitDx=0;exitDy=0;entryX=0;entryY=0.5;entryDx=0;entryDy=0;" parent="1" source="fKk6_YKPZvpBL1jXvlfD-10" target="fKk6_YKPZvpBL1jXvlfD-9" edge="1">
                    <mxGeometry width="50" height="50" relative="1" as="geometry">
                        <mxPoint x="400" y="560" as="sourcePoint"/>
                        <mxPoint x="450" y="510" as="targetPoint"/>
                    </mxGeometry>
                </mxCell>
                <mxCell id="fKk6_YKPZvpBL1jXvlfD-23" value="" style="endArrow=classic;html=1;rounded=0;exitX=0.5;exitY=1;exitDx=0;exitDy=0;entryX=0.5;entryY=0;entryDx=0;entryDy=0;" parent="1" source="fKk6_YKPZvpBL1jXvlfD-6" target="fKk6_YKPZvpBL1jXvlfD-10" edge="1">
                    <mxGeometry width="50" height="50" relative="1" as="geometry">
                        <mxPoint x="140" y="470" as="sourcePoint"/>
                        <mxPoint x="220" y="470" as="targetPoint"/>
                        <Array as="points"/>
                    </mxGeometry>
                </mxCell>
                <mxCell id="fKk6_YKPZvpBL1jXvlfD-24" value="" style="endArrow=classic;html=1;rounded=0;exitX=0.5;exitY=1;exitDx=0;exitDy=0;entryX=0.5;entryY=0;entryDx=0;entryDy=0;" parent="1" source="fKk6_YKPZvpBL1jXvlfD-5" target="fKk6_YKPZvpBL1jXvlfD-9" edge="1">
                    <mxGeometry width="50" height="50" relative="1" as="geometry">
                        <mxPoint x="344" y="450" as="sourcePoint"/>
                        <mxPoint x="424" y="491" as="targetPoint"/>
                    </mxGeometry>
                </mxCell>
                <mxCell id="fKk6_YKPZvpBL1jXvlfD-25" value="" style="endArrow=classic;html=1;rounded=0;exitX=1;exitY=1;exitDx=0;exitDy=0;" parent="1" edge="1">
                    <mxGeometry width="50" height="50" relative="1" as="geometry">
                        <mxPoint x="600" y="330" as="sourcePoint"/>
                        <mxPoint x="600" y="250" as="targetPoint"/>
                        <Array as="points"/>
                    </mxGeometry>
                </mxCell>
                <mxCell id="fKk6_YKPZvpBL1jXvlfD-26" value="&lt;font style=&quot;font-size: 13px;&quot;&gt;byte&lt;/font&gt;" style="text;html=1;align=center;verticalAlign=middle;whiteSpace=wrap;rounded=0;" parent="1" vertex="1">
                    <mxGeometry x="500" y="260" width="60" height="30" as="geometry"/>
                </mxCell>
                <mxCell id="fKk6_YKPZvpBL1jXvlfD-27" value="&lt;font style=&quot;font-size: 13px;&quot;&gt;Reset&lt;br&gt;if 1ms finish&lt;br&gt;&lt;/font&gt;" style="text;html=1;align=center;verticalAlign=middle;whiteSpace=wrap;rounded=0;" parent="1" vertex="1">
                    <mxGeometry x="600" y="270" width="80" height="30" as="geometry"/>
                </mxCell>
                <mxCell id="fKk6_YKPZvpBL1jXvlfD-28" value="&lt;font style=&quot;font-size: 13px;&quot;&gt;Received&lt;/font&gt;&lt;div style=&quot;font-size: 13px;&quot;&gt;&lt;font style=&quot;font-size: 13px;&quot;&gt;Packet&lt;/font&gt;&lt;/div&gt;" style="text;html=1;align=center;verticalAlign=middle;whiteSpace=wrap;rounded=0;" parent="1" vertex="1">
                    <mxGeometry x="370" y="190" width="60" height="30" as="geometry"/>
                </mxCell>
                <mxCell id="fKk6_YKPZvpBL1jXvlfD-31" value="&lt;font style=&quot;font-size: 13px;&quot;&gt;com&lt;br&gt;connect&lt;br&gt;&lt;/font&gt;" style="text;html=1;align=center;verticalAlign=middle;whiteSpace=wrap;rounded=0;" parent="1" vertex="1">
                    <mxGeometry x="151" y="370" width="60" height="30" as="geometry"/>
                </mxCell>
                <mxCell id="fKk6_YKPZvpBL1jXvlfD-34" value="_ser&lt;br&gt;tx_queue&lt;br&gt;data_queue" style="text;html=1;align=center;verticalAlign=middle;whiteSpace=wrap;rounded=0;" parent="1" vertex="1">
                    <mxGeometry x="213" y="393" width="60" height="30" as="geometry"/>
                </mxCell>
                <mxCell id="fKk6_YKPZvpBL1jXvlfD-35" value="&lt;font style=&quot;font-size: 13px;&quot;&gt;start&lt;br&gt;thread1&lt;br&gt;&lt;/font&gt;" style="text;html=1;align=center;verticalAlign=middle;whiteSpace=wrap;rounded=0;" parent="1" vertex="1">
                    <mxGeometry x="356" y="370" width="60" height="30" as="geometry"/>
                </mxCell>
                <mxCell id="fKk6_YKPZvpBL1jXvlfD-38" value="&lt;font style=&quot;font-size: 13px;&quot;&gt;start&lt;/font&gt;&lt;div style=&quot;font-size: 13px;&quot;&gt;&lt;font style=&quot;font-size: 13px;&quot;&gt;thread2&lt;/font&gt;&lt;/div&gt;" style="text;html=1;align=center;verticalAlign=middle;whiteSpace=wrap;rounded=0;" parent="1" vertex="1">
                    <mxGeometry x="320" y="420" width="60" height="30" as="geometry"/>
                </mxCell>
                <mxCell id="fKk6_YKPZvpBL1jXvlfD-39" value="&lt;font style=&quot;font-size: 13px;&quot;&gt;bytearray&lt;/font&gt;" style="text;html=1;align=center;verticalAlign=middle;whiteSpace=wrap;rounded=0;" parent="1" vertex="1">
                    <mxGeometry x="211" y="610" width="60" height="30" as="geometry"/>
                </mxCell>
                <mxCell id="fKk6_YKPZvpBL1jXvlfD-40" value="&lt;font style=&quot;font-size: 13px;&quot;&gt;ui&lt;/font&gt;&lt;div style=&quot;font-size: 13px;&quot;&gt;&lt;font style=&quot;font-size: 13px;&quot;&gt;data&lt;/font&gt;&lt;/div&gt;" style="text;html=1;align=center;verticalAlign=middle;whiteSpace=wrap;rounded=0;" parent="1" vertex="1">
                    <mxGeometry x="120" y="420" width="60" height="30" as="geometry"/>
                </mxCell>
                <mxCell id="fKk6_YKPZvpBL1jXvlfD-44" value="&lt;font style=&quot;font-size: 21px;&quot;&gt;serial lib&lt;/font&gt;" style="text;html=1;align=center;verticalAlign=middle;whiteSpace=wrap;rounded=0;" parent="1" vertex="1">
                    <mxGeometry x="560" y="650" width="130" height="80" as="geometry"/>
                </mxCell>
                <mxCell id="3" value="data (byte)&lt;br&gt;&lt;br&gt;tx_queue&lt;br&gt;data_queue" style="text;html=1;strokeColor=none;fillColor=none;align=center;verticalAlign=middle;whiteSpace=wrap;rounded=0;" vertex="1" parent="1">
                    <mxGeometry x="417" y="378" width="60" height="30" as="geometry"/>
                </mxCell>
                <mxCell id="4" value="_ser&lt;br&gt;tx_queue" style="text;html=1;strokeColor=none;fillColor=none;align=center;verticalAlign=middle;whiteSpace=wrap;rounded=0;" vertex="1" parent="1">
                    <mxGeometry x="350" y="480" width="60" height="30" as="geometry"/>
                </mxCell>
                <mxCell id="5" value="json" style="text;html=1;strokeColor=none;fillColor=none;align=center;verticalAlign=middle;whiteSpace=wrap;rounded=0;" vertex="1" parent="1">
                    <mxGeometry x="100" y="470" width="60" height="30" as="geometry"/>
                </mxCell>
                <mxCell id="6" value="&lt;span style=&quot;font-size: 13px;&quot;&gt;dict&lt;/span&gt;" style="text;html=1;align=center;verticalAlign=middle;whiteSpace=wrap;rounded=0;" vertex="1" parent="1">
                    <mxGeometry x="330" y="240" width="60" height="30" as="geometry"/>
                </mxCell>
            </root>
        </mxGraphModel>
    </diagram>
</mxfile>